REM DIRINDEX 1\2,1\3,1\4,1\5,1\6
REM DIRNAME cjc091,folder01,folder02,folder03,folder04,folder05
TITLE ""
FILE "CD1-33.mp3" MP3
  TRACK 01 AUDIO
    TITLE "6:cjc091_0591"
    INDEX 01 00:00:00
  TRACK 02 AUDIO
    TITLE "0:"
    INDEX 01 00:01:15
  TRACK 03 AUDIO
    TITLE "6:cjc091_0592"
    INDEX 01 00:01:32
  TRACK 04 AUDIO
    TITLE "0:"
    INDEX 01 00:03:39
  TRACK 05 AUDIO
    TITLE "2:cjc091_0593"
    INDEX 01 00:04:52
  TRACK 06 AUDIO
    TITLE "0:"
    INDEX 01 00:06:06
  TRACK 07 AUDIO
    TITLE "3:cjc091_0594"
    INDEX 01 00:06:28
  TRACK 08 AUDIO
    TITLE "0:"
    INDEX 01 00:08:40
  TRACK 09 AUDIO
    TITLE "4:cjc091_0595"
    INDEX 01 00:08:64
  TRACK 10 AUDIO
    TITLE "0:"
    INDEX 01 00:12:73
  TRACK 11 AUDIO
    TITLE "2:cjc091_0596"
    INDEX 01 00:14:15
  TRACK 12 AUDIO
    TITLE "0:"
    INDEX 01 00:15:72
  TRACK 13 AUDIO
    TITLE "3:cjc091_0597"
    INDEX 01 00:16:20
  TRACK 14 AUDIO
    TITLE "0:"
    INDEX 01 00:17:65
  TRACK 15 AUDIO
    TITLE "4:cjc091_0598"
    INDEX 01 00:18:17
  TRACK 16 AUDIO
    TITLE "0:"
    INDEX 01 00:21:55
  TRACK 17 AUDIO
    TITLE "2:cjc091_0599"
    INDEX 01 00:22:66
  TRACK 18 AUDIO
    TITLE "0:"
    INDEX 01 00:24:45
  TRACK 19 AUDIO
    TITLE "3:cjc091_0600"
    INDEX 01 00:24:63
  TRACK 20 AUDIO
    TITLE "0:"
    INDEX 01 00:26:52
  TRACK 21 AUDIO
    TITLE "4:cjc091_0601"
    INDEX 01 00:27:04
  TRACK 22 AUDIO
    TITLE "0:"
    INDEX 01 00:30:16
  TRACK 23 AUDIO
    TITLE "2:cjc091_0602"
    INDEX 01 00:31:29
  TRACK 24 AUDIO
    TITLE "0:"
    INDEX 01 00:32:45
  TRACK 25 AUDIO
    TITLE "3:cjc091_0603"
    INDEX 01 00:32:68
  TRACK 26 AUDIO
    TITLE "0:"
    INDEX 01 00:34:47
  TRACK 27 AUDIO
    TITLE "4:cjc091_0604"
    INDEX 01 00:34:71
  TRACK 28 AUDIO
    TITLE "0:"
    INDEX 01 00:37:65
  TRACK 29 AUDIO
    TITLE "2:cjc091_0605"
    INDEX 01 00:39:03
  TRACK 30 AUDIO
    TITLE "0:"
    INDEX 01 00:41:22
  TRACK 31 AUDIO
    TITLE "3:cjc091_0606"
    INDEX 01 00:41:44
  TRACK 32 AUDIO
    TITLE "0:"
    INDEX 01 00:43:23
  TRACK 33 AUDIO
    TITLE "4:cjc091_0607"
    INDEX 01 00:43:46
  TRACK 34 AUDIO
    TITLE "0:"
    INDEX 01 00:46:49
  TRACK 35 AUDIO
    TITLE "2:cjc091_0608"
    INDEX 01 00:47:58
  TRACK 36 AUDIO
    TITLE "0:"
    INDEX 01 00:49:74
  TRACK 37 AUDIO
    TITLE "3:cjc091_0609"
    INDEX 01 00:50:17
  TRACK 38 AUDIO
    TITLE "0:"
    INDEX 01 00:52:00
  TRACK 39 AUDIO
    TITLE "4:cjc091_0610"
    INDEX 01 00:52:24
  TRACK 40 AUDIO
    TITLE "0:"
    INDEX 01 00:56:04
  TRACK 41 AUDIO
    TITLE "2:cjc091_0611"
    INDEX 01 00:57:15
  TRACK 42 AUDIO
    TITLE "0:"
    INDEX 01 00:58:32
  TRACK 43 AUDIO
    TITLE "3:cjc091_0612"
    INDEX 01 00:58:44
  TRACK 44 AUDIO
    TITLE "0:"
    INDEX 01 00:59:69
  TRACK 45 AUDIO
    TITLE "4:cjc091_0613"
    INDEX 01 01:00:17
  TRACK 46 AUDIO
    TITLE "0:"
    INDEX 01 01:05:03
  TRACK 47 AUDIO
    TITLE "2:cjc091_0614"
    INDEX 01 01:06:14
  TRACK 48 AUDIO
    TITLE "0:"
    INDEX 01 01:08:25
  TRACK 49 AUDIO
    TITLE "3:cjc091_0615"
    INDEX 01 01:08:42
  TRACK 50 AUDIO
    TITLE "0:"
    INDEX 01 01:10:53
  TRACK 51 AUDIO
    TITLE "4:cjc091_0616"
    INDEX 01 01:11:02
  TRACK 52 AUDIO
    TITLE "0:"
    INDEX 01 01:14:25
  TRACK 53 AUDIO
    TITLE "2:cjc091_0617"
    INDEX 01 01:15:35
  TRACK 54 AUDIO
    TITLE "0:"
    INDEX 01 01:16:40
  TRACK 55 AUDIO
    TITLE "3:cjc091_0618"
    INDEX 01 01:16:61
  TRACK 56 AUDIO
    TITLE "0:"
    INDEX 01 01:18:21
  TRACK 57 AUDIO
    TITLE "4:cjc091_0619"
    INDEX 01 01:18:47
  TRACK 58 AUDIO
    TITLE "0:"
    INDEX 01 01:21:27
  TRACK 59 AUDIO
    TITLE "2:cjc091_0620"
    INDEX 01 01:22:35
  TRACK 60 AUDIO
    TITLE "0:"
    INDEX 01 01:23:73
  TRACK 61 AUDIO
    TITLE "3:cjc091_0621"
    INDEX 01 01:24:16
  TRACK 62 AUDIO
    TITLE "0:"
    INDEX 01 01:26:05
  TRACK 63 AUDIO
    TITLE "4:cjc091_0622"
    INDEX 01 01:26:27
  TRACK 64 AUDIO
    TITLE "0:"
    INDEX 01 01:30:62
  TRACK 65 AUDIO
    TITLE "2:cjc091_0623"
    INDEX 01 01:31:73
  TRACK 66 AUDIO
    TITLE "0:"
    INDEX 01 01:33:46
  TRACK 67 AUDIO
    TITLE "3:cjc091_0624"
    INDEX 01 01:33:56
  TRACK 68 AUDIO
    TITLE "0:"
    INDEX 01 01:35:26
  TRACK 69 AUDIO
    TITLE "4:cjc091_0625"
    INDEX 01 01:35:47
  TRACK 70 AUDIO
    TITLE "0:"
    INDEX 01 01:38:73
  TRACK 71 AUDIO
    TITLE "2:cjc091_0626"
    INDEX 01 01:40:05
  TRACK 72 AUDIO
    TITLE "0:"
    INDEX 01 01:41:28
  TRACK 73 AUDIO
    TITLE "3:cjc091_0627"
    INDEX 01 01:41:38
  TRACK 74 AUDIO
    TITLE "0:"
    INDEX 01 01:42:73
  TRACK 75 AUDIO
    TITLE "4:cjc091_0628"
    INDEX 01 01:43:17
  TRACK 76 AUDIO
    TITLE "0:"
    INDEX 01 01:45:34
  TRACK 77 AUDIO
    TITLE "2:cjc091_0629"
    INDEX 01 01:46:39
  TRACK 78 AUDIO
    TITLE "0:"
    INDEX 01 01:47:48
  TRACK 79 AUDIO
    TITLE "3:cjc091_0630"
    INDEX 01 01:47:60
  TRACK 80 AUDIO
    TITLE "0:"
    INDEX 01 01:49:06
  TRACK 81 AUDIO
    TITLE "4:cjc091_0631"
    INDEX 01 01:49:28
  TRACK 82 AUDIO
    TITLE "0:"
    INDEX 01 01:51:58
  TRACK 83 AUDIO
    TITLE "2:cjc091_0632"
    INDEX 01 01:52:71
  TRACK 84 AUDIO
    TITLE "0:"
    INDEX 01 01:54:17
  TRACK 85 AUDIO
    TITLE "3:cjc091_0633"
    INDEX 01 01:54:35
  TRACK 86 AUDIO
    TITLE "0:"
    INDEX 01 01:56:18
  TRACK 87 AUDIO
    TITLE "4:cjc091_0634"
    INDEX 01 01:56:37
  TRACK 88 AUDIO
    TITLE "0:"
    INDEX 01 01:59:63
  TRACK 89 AUDIO
    TITLE "2:cjc091_0635"
    INDEX 01 02:00:71
  TRACK 90 AUDIO
    TITLE "0:"
    INDEX 01 02:02:24
  TRACK 91 AUDIO
    TITLE "3:cjc091_0636"
    INDEX 01 02:02:30
  TRACK 92 AUDIO
    TITLE "0:"
    INDEX 01 02:03:45
  TRACK 93 AUDIO
    TITLE "4:cjc091_0637"
    INDEX 01 02:03:69
  TRACK 94 AUDIO
    TITLE "0:"
    INDEX 01 02:07:12
